<svg xmlns="http://www.w3.org/2000/svg" width="118" height="23" fill="none"><path fill="#111" d="M1.66 20.37a8.42 8.42 0 0 1-1.4-5.24V7.57a8.55 8.55 0 0 1 1.38-5.29C2.57 1.08 4.15.48 6.4.48c2.24.01 3.76.54 4.55 1.59a6.82 6.82 0 0 1 1.33 4.53v1.77H8.13V6.45c0-.51-.04-1.02-.13-1.52a1.7 1.7 0 0 0-.47-.95 1.56 1.56 0 0 0-1.15-.38 1.45 1.45 0 0 0-1.5.76c-.26.7-.37 1.46-.34 2.22v9.6c-.04.76.1 1.52.4 2.22a1.49 1.49 0 0 0 1.44.74 1.34 1.34 0 0 0 1.4-.75c.25-.71.35-1.46.31-2.2v-2.03h4.14v1.75A7.36 7.36 0 0 1 11 20.56c-.88 1.1-2.4 1.65-4.56 1.65-2.16 0-3.85-.6-4.78-1.84ZM17.91.78h4.74l4 21.18h-3.94l-.7-4.68h-3.33l-.8 4.65h-4L17.91.78Zm3.65 13.84L20.3 6.1l-1.25 8.52h2.51ZM29.73 3.97h-3.24V.77H37.2v3.2H34v17.96h-4.3l.02-17.96Z"/><path fill="#444" d="M45.62.78h8.13v2.2h-5.2v6.99h4.22v2.09h-4.22v7.75h5.25v2.12h-8.18V.78ZM56.16.78h2l6 14.05V.78h2.44v21.18h-1.87l-6-14.44v14.41h-2.48L56.15.78ZM69.83.78h8.12v2.2h-5.2v6.99H77v2.09h-4.22v7.75H78v2.12h-8.18V.78ZM80.36.78h4.22a6.96 6.96 0 0 1 4.67 1.32c1 .88 1.49 2.3 1.49 4.3 0 2.69-.87 4.33-2.6 4.93l3 10.6h-2.83L85.56 12h-2.27v9.93h-2.93V.78Zm4 9.08c.96.09 1.92-.18 2.7-.77a3.61 3.61 0 0 0 .82-2.73 5.95 5.95 0 0 0-.3-2.02 1.91 1.91 0 0 0-1-1.1 4.72 4.72 0 0 0-2.04-.34h-1.3v7l1.12-.04ZM94.68 20.37a9.4 9.4 0 0 1-1.27-5.4V7.91c-.04-1.36.13-2.72.5-4.04.29-.98.9-1.84 1.74-2.43A5.87 5.87 0 0 1 99 .6a5.22 5.22 0 0 1 4.18 1.49 7.1 7.1 0 0 1 1.28 4.67v.79h-2.75v-.66a11.7 11.7 0 0 0-.18-2.34c-.1-.5-.36-.94-.76-1.24a2.98 2.98 0 0 0-1.72-.41 2.5 2.5 0 0 0-1.81.56c-.42.4-.69.92-.77 1.5-.13.82-.18 1.66-.17 2.5v7.86c-.08 1.2.12 2.4.59 3.5a2.83 2.83 0 0 0 3.5.74c.38-.2.71-.49.97-.84.48-1.16.69-2.42.6-3.68v-1.5h-2.65v-2.08h5.3v10.47h-1.81l-.3-2.43a3.72 3.72 0 0 1-3.72 2.7 4.62 4.62 0 0 1-4.11-1.83ZM110.7 14.47 106.17.77h2.72l3.2 10.22L115.27.78H118l-4.5 13.69v7.46h-2.8l-.01-7.46Z"/></svg>